<?xml version="1.0"?>
<svg xmlns="http://www.w3.org/2000/svg" xmlns:xlink="http://www.w3.org/1999/xlink" version="1.1" id="Capa_1" x="0px" y="0px" viewBox="0 0 490.667 490.667" style="enable-background:new 0 0 490.667 490.667;" xml:space="preserve" width="512px" height="512px" class=""><g><g>
	<g>
		<path d="M437.333,10.667h-384C23.915,10.667,0,34.603,0,64v234.667C0,328.064,23.915,352,53.333,352h85.333    c5.888,0,10.667-4.779,10.667-10.667c0-5.888-4.779-10.667-10.667-10.667H53.333c-17.643,0-32-14.357-32-32V64    c0-17.643,14.357-32,32-32h384c17.643,0,32,14.357,32,32v234.667c0,17.643-14.357,32-32,32H352    c-5.888,0-10.667,4.779-10.667,10.667c0,5.888,4.779,10.667,10.667,10.667h85.333c29.419,0,53.333-23.936,53.333-53.333V64    C490.667,34.603,466.752,10.667,437.333,10.667z" data-original="#000000" class="active-path" data-old_color="#000000" fill="#FFFFFF"/>
	</g>
</g><g>
	<g>
		<path d="M445.995,57.749c-3.477-4.779-10.133-5.845-14.891-2.389l-165.76,119.701c-12.117,8.768-27.883,8.768-40,0L59.584,55.36    c-4.757-3.435-11.435-2.411-14.891,2.389c-3.456,4.779-2.389,11.456,2.389,14.912l165.76,119.701    c9.728,7.019,21.099,10.517,32.491,10.517s22.763-3.52,32.512-10.539L443.605,72.64C448.363,69.205,449.451,62.528,445.995,57.749    z" data-original="#000000" class="active-path" data-old_color="#000000" fill="#FFFFFF"/>
	</g>
</g><g>
	<g>
		<path d="M167.531,184.469c-4.16-4.16-10.923-4.16-15.083,0L45.781,291.136c-4.16,4.16-4.16,10.923,0,15.083    c2.091,2.069,4.821,3.115,7.552,3.115s5.461-1.045,7.531-3.115l106.667-106.667C171.691,195.392,171.691,188.629,167.531,184.469z    " data-original="#000000" class="active-path" data-old_color="#000000" fill="#FFFFFF"/>
	</g>
</g><g>
	<g>
		<path d="M444.864,291.136L338.197,184.469c-4.16-4.16-10.923-4.16-15.083,0c-4.16,4.16-4.16,10.923,0,15.083l106.667,106.667    c2.091,2.069,4.821,3.115,7.552,3.115c2.731,0,5.461-1.045,7.531-3.115C449.024,302.059,449.024,295.296,444.864,291.136z" data-original="#000000" class="active-path" data-old_color="#000000" fill="#FFFFFF"/>
	</g>
</g><g>
	<g>
		<path d="M359.531,291.115l-42.667-42.667c-4.16-4.16-10.923-4.16-15.083,0L131.115,419.115c-1.984,2.005-3.115,4.715-3.115,7.552    v42.667c0,5.888,4.779,10.667,10.667,10.667h42.667c2.837,0,5.547-1.131,7.531-3.136l170.667-170.667    C363.691,302.037,363.691,295.275,359.531,291.115z M176.917,458.667h-27.584v-27.584l160-160l27.584,27.584L176.917,458.667z" data-original="#000000" class="active-path" data-old_color="#000000" fill="#FFFFFF"/>
	</g>
</g><g>
	<g>
		<path d="M316.864,333.803l-42.667-42.667c-4.16-4.16-10.923-4.16-15.083,0c-4.16,4.16-4.16,10.923,0,15.083l42.667,42.667    c2.091,2.069,4.821,3.115,7.552,3.115s5.461-1.045,7.531-3.115C321.024,344.725,321.024,337.963,316.864,333.803z" data-original="#000000" class="active-path" data-old_color="#000000" fill="#FFFFFF"/>
	</g>
</g></g> </svg>
