<svg xmlns="http://www.w3.org/2000/svg" width="32" height="32">
    <path fill="#95E1D3" fill-rule="evenodd" d="M16 31.998c-8.836 0-16-7.163-16-16.001C0 7.162 7.164-.002 16-.002c8.837 0 16 7.164 16 15.999 0 8.838-7.163 16.001-16 16.001zm0-29c-7.18 0-13 5.82-13 12.999 0 7.18 5.82 13.001 13 13.001s13-5.821 13-13.001c0-7.179-5.82-12.999-13-12.999zm0 22.499c-5.247 0-9.5-4.253-9.5-9.5 0-5.245 4.253-9.499 9.5-9.499s9.5 4.254 9.5 9.499c0 5.247-4.253 9.5-9.5 9.5zm0-15.999c-3.59 0-6.5 2.91-6.5 6.499 0 3.59 2.91 6.502 6.5 6.502s6.5-2.912 6.5-6.502c0-3.589-2.91-6.499-6.5-6.499zm0 9.501c-1.657 0-3-1.344-3-3.002 0-1.656 1.343-2.998 3-2.998s3 1.342 3 2.998c0 1.658-1.343 3.002-3 3.002z"/>
</svg>
