<svg xmlns="http://www.w3.org/2000/svg" width="16" height="16">
    <path fill="#95E1D3" fill-rule="evenodd" d="M15.837 6.404c-.104-.513-.262-1.02-.466-1.504-.2-.475-.449-.931-.738-1.359-.286-.423-.614-.821-.976-1.183-.362-.362-.76-.69-1.184-.977-.427-.289-.885-.537-1.359-.737-.483-.204-.989-.362-1.503-.467C9.084.069 8.542.015 8 .015S6.916.069 6.389.177c-.514.105-1.02.263-1.504.467-.474.2-.931.448-1.359.737-.423.287-.822.615-1.183.977-.362.362-.69.76-.976 1.183-.289.428-.538.884-.738 1.359-.205.484-.362.991-.467 1.504C.054 6.93 0 7.473 0 8.014 0 8.557.054 9.1.162 9.626c.105.514.262 1.02.467 1.503.2.475.449.933.738 1.36.286.424.614.821.976 1.183.361.362.76.69 1.183.976.428.289.885.538 1.359.738.484.205.99.361 1.504.466.527.109 1.069.164 1.611.164s1.084-.055 1.611-.164c.514-.105 1.02-.261 1.503-.466.474-.2.932-.449 1.359-.738.424-.286.822-.614 1.184-.976s.69-.759.976-1.183c.289-.427.538-.885.738-1.36.204-.483.362-.989.466-1.503.109-.526.163-1.069.163-1.612 0-.541-.054-1.084-.163-1.61zM14.83 7.947c-.099-.022-2.411-.519-4.759-.224-.048-.117-.096-.234-.147-.353-.142-.334-.295-.665-.454-.991 2.698-1.101 3.794-2.686 3.807-2.704.958 1.163 1.537 2.651 1.553 4.272zm-2.317-5.059c-.017.026-.99 1.507-3.569 2.473C7.776 3.215 6.493 1.51 6.39 1.375c.516-.125 1.055-.193 1.61-.193 1.73 0 3.309.645 4.513 1.706zM6.364 1.381l-.002.001-.02.005c.007-.003.014-.004.022-.006zm-1.279.455c.091.121 1.354 1.835 2.537 3.936-3.281.872-6.128.838-6.308.834.444-2.116 1.865-3.87 3.771-4.77zM1.168 8.014c0-.072.003-.144.005-.216.121.003 3.497.08 7.015-.972.196.382.383.772.554 1.16-.09.026-.18.053-.269.082-3.687 1.192-5.557 4.51-5.557 4.51s.002.001.002.003C1.83 11.37 1.168 9.77 1.168 8.014zM8 14.847c-1.654 0-3.17-.587-4.352-1.566.09.073.153.12.153.12s1.31-2.857 5.362-4.268l.045-.014c.961 2.498 1.358 4.59 1.459 5.188-.819.348-1.721.54-2.667.54zm3.818-1.165c-.07-.413-.434-2.418-1.33-4.88 2.206-.353 4.117.251 4.258.298-.304 1.903-1.394 3.546-2.928 4.582z"/>
</svg>
