<svg xmlns="http://www.w3.org/2000/svg" width="28" height="32">
    <path fill="#95E1D3" fill-rule="evenodd" d="M26.5 16.497h-3c-.828 0-1.5-.67-1.5-1.499v-6c0-.828.672-1.499 1.5-1.499h3c.828 0 1.5.671 1.5 1.499v6c0 .829-.672 1.499-1.5 1.499zm-3-15c0-.828.672-1.499 1.5-1.499s1.5.671 1.5 1.499v4.501h-3V1.497zm-8 23h-3c-.828 0-1.5-.67-1.5-1.499v-6c0-.828.672-1.5 1.5-1.5h3c.828 0 1.5.672 1.5 1.5v6c0 .829-.672 1.499-1.5 1.499zm-3-23c0-.828.672-1.499 1.5-1.499s1.5.671 1.5 1.499v12.501h-3V1.497zm-8 19.001h-3c-.828 0-1.5-.672-1.5-1.501v-6c0-.828.672-1.499 1.5-1.499h3c.828 0 1.5.671 1.5 1.499v6c0 .829-.672 1.501-1.5 1.501zm-3-19.001C1.5.669 2.172-.002 3-.002s1.5.671 1.5 1.499v8.502h-3V1.497zm3 29c0 .829-.672 1.501-1.5 1.501s-1.5-.672-1.5-1.501v-8.499h3v8.499zm11 0c0 .829-.672 1.501-1.5 1.501s-1.5-.672-1.5-1.501v-4.5h3v4.5zm11 0c0 .829-.672 1.501-1.5 1.501s-1.5-.672-1.5-1.501V17.999h3v12.498z"/>
</svg>
