<svg xmlns="http://www.w3.org/2000/svg" width="16" height="16">
    <path fill="#95E1D3" fill-rule="evenodd" d="M14 16.015H2c-1.105 0-2-.895-2-2v-12c0-1.105.895-2 2-2h12c1.105 0 2 .895 2 2v12c0 1.105-.895 2-2 2zm-6-11.1c-1.247 0-2.32.738-2.811 1.8h-.003l-.014.034c-.029.065-.055.133-.08.201-.012.032-.025.064-.036.097-.023.07-.042.141-.059.213-.009.033-.019.066-.026.1-.017.075-.028.152-.038.23l-.015.093c-.011.109-.018.22-.018.332 0 1.712 1.388 3.1 3.1 3.1 1.712 0 3.1-1.388 3.1-3.1 0-.112-.007-.223-.018-.332l-.015-.093c-.01-.078-.022-.155-.038-.23-.007-.034-.017-.067-.026-.1-.018-.072-.036-.143-.059-.213-.011-.033-.024-.065-.036-.097-.025-.068-.051-.136-.08-.201l-.014-.034h-.003c-.492-1.062-1.564-1.8-2.811-1.8zm6.2-2.3c0-.442-.358-.8-.8-.8h-1.6c-.442 0-.8.358-.8.8v1.6c0 .442.358.8.8.8h1.6c.442 0 .8-.358.8-.8v-1.6zm0 4.1h-1.475c.114.414.175.85.175 1.3 0 2.706-2.194 4.9-4.9 4.9-2.706 0-4.9-2.194-4.9-4.9 0-.45.061-.886.175-1.3H1.8v6.7c0 .442.358.8.8.8h10.8c.442 0 .8-.358.8-.8v-6.7z"/>
</svg>
