<svg xmlns="http://www.w3.org/2000/svg" width="13" height="17">
    <path fill="#95E1D3" fill-rule="evenodd" d="M5.844 10.424c-.131.521-.262 1.066-.398 1.6-.135.526-.253 1.06-.449 1.543-.324.801-.737 1.575-1.277 2.201-.359.417-.283.251-.391.228-.083-.017-.09-.097-.106-.215-.088-.636-.028-1.372.005-2.087.037-.815.208-1.493.367-2.17.303-1.29.592-2.554.897-3.851.021-.087.075-.23.057-.279-.139-.36-.229-.685-.268-1.062-.046-.436-.011-.841.087-1.215.172-.661.57-1.248 1.184-1.461.389-.136.821-.075 1.083.082.271.161.456.417.542.778.093.385.025.845-.049 1.183-.167.761-.387 1.333-.586 2.068-.099.365-.211.739-.118 1.132.085.362.273.611.529.797.266.193.581.3 1.016.285.767-.027 1.3-.517 1.657-.98.57-.741.915-1.74 1.047-2.929.042-.383.073-.824.043-1.259-.054-.802-.306-1.447-.704-1.948-.379-.476-.916-.856-1.57-1.069-.648-.212-1.545-.282-2.342-.145-1.448.248-2.47 1.071-3.072 2.207-.315.595-.523 1.28-.523 2.131 0 .657.162 1.166.424 1.563.083.125.205.229.286.373.116.204-.018.508-.075.728-.068.265-.076.633-.386.639-.128.002-.29-.092-.398-.152C1.54 8.689 1.045 7.869.842 6.806c-.124-.646-.123-1.4 0-2.025.119-.604.34-1.16.585-1.613.509-.939 1.255-1.689 2.162-2.226C4.287.53 5.074.24 6.031.101c.318-.046.647-.065 1.003-.083 1.043-.049 1.991.188 2.704.507.753.337 1.354.785 1.863 1.34.523.573.904 1.238 1.146 2.069.126.432.249.896.249 1.43 0 .535-.114 1.008-.193 1.48-.296 1.767-1.137 3.212-2.398 4.035-.306.2-.677.384-1.097.506-.417.121-.892.213-1.402.177-.494-.034-.899-.168-1.239-.36-.338-.191-.622-.425-.823-.778z"/>
</svg>
