<svg xmlns="http://www.w3.org/2000/svg" width="63" height="61">
    <path fill="#95E1D3" fill-rule="evenodd" d="M60 35.998h-2v5.001c0 .205-.021.409-.061.604-.028.136-.076.263-.122.392-.02.058-.03.117-.053.17-.048.115-.115.22-.176.327-.035.06-.061.126-.1.184-.098.144-.212.278-.334.403-.012.013-.02.029-.033.04-.534.536-1.271.866-2.084.876l-.037.002c-.828 0-1.578-.334-2.121-.878l-7.122-7.121H18c-1.657 0-3-1.343-3-3v-30c0-1.657 1.343-3.001 3-3.001h42c1.657 0 3 1.344 3 3.001v30c0 1.657-1.343 3-3 3zm-15.485 3l6.326 6.327.008-.008c1.079 1.037 2.537 1.682 4.151 1.682v2c0 1.656-1.343 2.999-3 2.999H20.243l-8.122 8.122c-.543.542-1.293.879-2.121.879-.013 0-.024-.004-.037-.004-.814-.011-1.55-.341-2.084-.875-.013-.013-.021-.029-.033-.041-.122-.125-.236-.259-.334-.404-.039-.057-.064-.122-.099-.183-.062-.108-.129-.212-.177-.326-.023-.054-.033-.114-.053-.17-.046-.13-.094-.256-.122-.394-.04-.194-.061-.397-.061-.605v-5.999H2.996C1.341 51.995 0 50.654 0 48.999v-34-.001c0-1.658 1.343-3 3-3h9v21c0 3.313 2.686 6 6 6h26.515z"/>
</svg>
