<svg xmlns="http://www.w3.org/2000/svg" width="10" height="17">
    <path fill="#95E1D3" fill-rule="evenodd" d="M10.009 15.145c-.68.321-1.297.548-1.849.678s-1.148.195-1.789.195c-.729 0-1.158-.092-1.718-.276-.559-.185-1.036-.45-1.431-.79-.396-.343-.669-.708-.823-1.092-.152-.386-.228-.944-.228-1.677V6.569H.007V4.302c.626-.204 1.351-.497 1.796-.879.448-.382.805-.839 1.075-1.375.27-.534.457-1.213.558-2.04h2.265v3.704h3.682v2.857H5.701v4.105c0 .929-.012 1.464.086 1.727.097.262.341.534.607.691.353.212.755.319 1.209.319.806 0 1.608-.264 2.406-.791v2.525z"/>
</svg>
